<svg xmlns="http://www.w3.org/2000/svg" width="54.074" height="32.697" viewBox="0 0 54.074 32.697"><defs><style>.a{fill:#a7d2e2;}.a,.b,.c,.d,.e{stroke:#dcf2f5;}.b{fill:#6fbdd9;}.c{fill:#4aa9cc;}.d{fill:#fff;}.e,.g{fill:none;}.f{fill:#dcf2f5;}</style></defs><g transform="translate(-19.77 -252.146)"><g transform="translate(-1262 205)"><g transform="translate(1282.27 55.482)"><path class="a" d="M4,11V24.635H20.1V11Z" transform="translate(-4 -11)"/><path class="b" d="M29.994,17.014h5.158l3.518,3.717v6.194H29.994Z" transform="translate(-13.892 -13.289)"/><ellipse class="c" cx="3.097" cy="3.097" rx="3.097" ry="3.097" transform="translate(1.858 10.531)"/><path class="c" d="M3.1,0A3.1,3.1,0,1,1,0,3.1,3.1,3.1,0,0,1,3.1,0Z" transform="translate(17.345 10.531)"/><path class="d" d="M11.239,26.814A1.239,1.239,0,1,1,10,28.053,1.239,1.239,0,0,1,11.239,26.814Zm15.486,0a1.239,1.239,0,1,1-1.239,1.239A1.239,1.239,0,0,1,26.725,26.814ZM26.106,19l2.478,3.478H24.247V19Z" transform="translate(-6.283 -14.425)"/></g><line class="e" x1="5" y1="6" transform="translate(1299.5 47.5)"/><line class="e" y1="5.322" transform="translate(1307.737 47.5)"/><line class="e" y1="6" x2="6" transform="translate(1311.5 47.5)"/></g><g transform="matrix(0.914, 0.407, -0.407, 0.914, 51.918, 253.157)"><path class="f" d="M18.92,6.01A1.494,1.494,0,0,0,17.5,5H6.5A1.5,1.5,0,0,0,5.08,6.01L3,12v8a1,1,0,0,0,1,1H5a1,1,0,0,0,1-1V19H18v1a1,1,0,0,0,1,1h1a1,1,0,0,0,1-1V12ZM6.5,16A1.5,1.5,0,1,1,8,14.5,1.5,1.5,0,0,1,6.5,16Zm11,0A1.5,1.5,0,1,1,19,14.5,1.5,1.5,0,0,1,17.5,16ZM5,11,6.5,6.5h11L19,11Z"/><path class="g" d="M0,0H24V24H0Z"/></g></g></svg>