<svg xmlns="http://www.w3.org/2000/svg" width="32.5" height="32.5" viewBox="0 0 32.5 32.5"><defs><style>.a{fill:none;}.b{fill:#dcf2f5;}</style></defs><path class="a" d="M0,0H32.5V32.5H0Z"/><path class="b" d="M14.833,28.906A2.716,2.716,0,0,0,17.542,26.2H12.125A2.716,2.716,0,0,0,14.833,28.906Zm8.125-8.125V14.01c0-4.157-2.207-7.637-6.094-8.558V4.531a2.031,2.031,0,0,0-4.063,0v.921C8.929,6.373,6.708,9.84,6.708,14.01v6.771L4,23.49v1.354H25.667V23.49ZM20.25,22.135H9.417V14.01c0-3.358,2.045-6.094,5.417-6.094s5.417,2.735,5.417,6.094Z" transform="translate(1.417 0.885)"/></svg>