<svg xmlns="http://www.w3.org/2000/svg" width="43.777" height="44.31" viewBox="0 0 43.777 44.31"><defs><style>.a,.b,.e{fill:none;}.b{stroke:#fff;}.c,.d{stroke:none;}.d{fill:#fff;}</style></defs><g transform="translate(-919.362 -1114.511)"><g transform="translate(558 2.645)"><g class="a" transform="translate(372.333 1134.9)"><path class="c" d="M6.822,0H21.836l5.23,8.276H0Z"/><path class="d" d="M 7.293754577636719 1.000000476837158 L 2.120218276977539 7.276420593261719 L 13.72384262084961 7.276420593261719 L 25.25087928771973 7.276420593261719 L 21.28471755981445 1.000000476837158 L 7.293754577636719 1.000000476837158 M 6.822103500366211 0 L 21.83573150634766 0 L 27.06572341918945 8.276420593261719 L 13.72384262084961 8.276420593261719 L 1.9073486328125e-06 8.276420593261719 L 6.822103500366211 0 Z"/></g><path class="b" d="M25.808,9.835H13.323a4.778,4.778,0,0,1-9.008,0H.062S-.677,1.3,2.959.282c7.428,0,29.352-.635,38.5,0,2.542,1.85,0,9.552,0,9.552H34.815a4.777,4.777,0,0,1-9.007,0Z" transform="translate(361.924 1142.658)"/><g class="b" transform="translate(365.965 1146.124)"><circle class="c" cx="4.776" cy="4.776" r="4.776"/><circle class="e" cx="4.776" cy="4.776" r="4.276"/></g><g class="b" transform="translate(387.458 1146.124)"><circle class="c" cx="4.776" cy="4.776" r="4.776"/><circle class="e" cx="4.776" cy="4.776" r="4.276"/></g></g><g transform="translate(-8569.977 -101.031)"><path class="b" d="M9510.28,1228.626c2.953-2.737,6.871-6.491,6.871-6.491s3.375,1.524,4.762-2.427c.437-.494-1.989.9-3.8.452-.121-.677-.3-1.975-.3-1.975l1.749-1.975s-4.762-.79-4.1,3.951c-2.773,2.766-6.992,7.112-6.992,7.112s-3.436-1.919-4.882,2.822c-.392.494,2.352-1.467,2.352-1.467l2.108.565-.3,1.75-2.411,1.75S9511,1233.762,9510.28,1228.626Z" transform="translate(0.908 -0.101)"/><path class="b" d="M9503.146,1216.167l1.794,2.443h1l7.316,6.865-1,1.1,1.728,1.65h.932v.916s2.66,2.083,4.255,3.549a2.9,2.9,0,0,0,2.825-3.123l-3.89-3.664h-1.13v-1.039l-1.463-1.466-1.1.741-7.171-6.725v-1.247l-2.677-1.578Z" transform="translate(3.869 2)"/></g></g></svg>