<svg xmlns="http://www.w3.org/2000/svg" width="25.254" height="24" viewBox="0 0 25.254 24"><defs><style>.a,.c{fill:none;}.b{fill:#4aa9cc;}.c{stroke:#4aa9cc;}.d{fill:#fff;}</style></defs><g transform="translate(0)"><path class="a" d="M24,0H0V24H24Z" transform="translate(0.054)"/><path class="b" d="M4,3.5V.778A.913.913,0,0,1,5,0H17a.913.913,0,0,1,1,.778V8.561a.913.913,0,0,1-1,.778H5a.913.913,0,0,1-1-.778V5.837L0,8.95V.389Z" transform="translate(0 10.36) rotate(-20)"/></g><line class="c" y2="6.5" transform="translate(13.554 14.5)"/><line class="c" x2="11" transform="translate(13.554 20.5)"/><path class="b" d="M3.2,0c-.025,4.218-.069,4.678,0,8C1.433,8,0,6.209,0,4S1.433,0,3.2,0Z" transform="translate(22.054 16)"/><circle class="d" cx="1" cy="1" r="1" transform="translate(14.054 8)"/></svg>