<svg xmlns="http://www.w3.org/2000/svg" width="39.554" height="37.59" viewBox="0 0 39.554 37.59"><defs><style>.a,.c{fill:none;}.b{fill:#dcf2f5;}.c{stroke:#dcf2f5;}.d{fill:#416e74;}</style></defs><g transform="translate(0)"><path class="a" d="M37.59,0H0V37.59H37.59Z" transform="translate(0.085)"/><path class="b" d="M6.265,5.485V1.219A1.43,1.43,0,0,1,7.831,0H26.626a1.43,1.43,0,0,1,1.566,1.219V13.408a1.43,1.43,0,0,1-1.566,1.219H7.831a1.43,1.43,0,0,1-1.566-1.219V9.142L0,14.018V.609Z" transform="translate(0 16.226) rotate(-20)"/></g><line class="c" y2="10" transform="translate(21.229 22.71)"/><path class="c" d="M0,0H17.229" transform="translate(21.229 32.108)"/><path class="b" d="M5.012,0c-.04,6.606-.108,7.327,0,12.53C2.244,12.53,0,9.725,0,6.265S2.244,0,5.012,0Z" transform="translate(34.542 25.06)"/><circle class="d" cx="1.566" cy="1.566" r="1.566" transform="translate(22.012 12.53)"/></svg>