<svg xmlns="http://www.w3.org/2000/svg" width="47.961" height="42" viewBox="0 0 47.961 42"><defs><style>.a,.c,.e{fill:none;}.a,.b,.c{stroke:#fff;}.a{stroke-width:2px;}.b{fill:#ff9768;}.c{stroke-linecap:round;}.d{stroke:none;}</style></defs><g transform="translate(-597 -237.5)"><g transform="translate(293 -10)"><line class="a" y2="40" transform="translate(308 248)"/><line class="a" y2="40" transform="translate(348 248)"/><line class="a" x2="47.961" transform="translate(304 248.5)"/><line class="a" x2="47.961" transform="translate(304 288.5)"/><line class="a" x2="47.961" transform="translate(304 261.5)"/><line class="a" x2="47.961" transform="translate(304 275.5)"/></g><g transform="translate(-40 64)"><g class="b" transform="translate(648 181)"><circle class="d" cx="14" cy="14" r="14"/><circle class="e" cx="14" cy="14" r="13.5"/></g><g transform="translate(6.1 3.5)"><g transform="translate(647.918 180.5)"><path class="c" d="M1.693,6.617C4.316-.961,10.66.254,13.667,1.318" transform="translate(-1.693 1.936)"/><line class="c" x1="1.406" y1="3.514" transform="translate(10.759)"/><line class="c" x1="3.514" y2="1.406" transform="translate(8.65 3.514)"/></g><g transform="matrix(-0.545, 0.839, -0.839, -0.545, 670.037, 190.439)"><path class="c" d="M0,6.089C2.623-1.488,8.967-.273,11.974.791" transform="translate(0 2.463)"/><line class="c" x1="1.406" y1="3.514" transform="translate(10.759 0)"/><line class="c" x1="3.514" y2="1.406" transform="translate(8.65 3.514)"/></g><g transform="matrix(-0.574, -0.819, 0.819, -0.574, 651.876, 204.158)"><path class="c" d="M0,5.7C2.779-1.432,8.964-.267,11.971.8" transform="translate(0 2.456)"/><line class="c" x1="1.406" y1="3.514" transform="translate(10.756 0)"/><line class="c" x1="3.514" y2="1.406" transform="translate(8.647 3.514)"/></g></g></g></g></svg>