<svg xmlns="http://www.w3.org/2000/svg" width="21.439" height="35.062" viewBox="0 0 21.439 35.062"><defs><style>.a{fill:#dcf2f5;}</style></defs><path class="a" d="M10.72,0A10.735,10.735,0,0,0,0,10.724a10.581,10.581,0,0,0,2.078,6.339l.5.736c1.545,2.266,3.661,5.373,3.542,7.547l-.043.788,8.505-.005.752-.014-.007-.752c0-.024.019-2.5,3.642-7.731l.33-.482a10.214,10.214,0,0,0,.859-1.338,8.973,8.973,0,0,0,.432-.9,10.622,10.622,0,0,0,.851-4.189A10.734,10.734,0,0,0,10.72,0Zm8.492,14.336a7.538,7.538,0,0,1-.365.763,10.045,10.045,0,0,1-.758,1.178l-.352.51c-2.846,4.113-3.624,6.659-3.831,7.85l-6.322,0c-.263-2.527-2.271-5.473-3.778-7.684l-.5-.743a9.228,9.228,0,1,1,16.644-5.49A9.166,9.166,0,0,1,19.213,14.336Z" transform="translate(0 0)"/><rect class="a" width="4.417" height="1.491" transform="translate(8.511 33.571)"/><rect class="a" width="8.949" height="1.493" transform="translate(6.245 30.626)"/><path class="a" d="M364.168,154.125a.723.723,0,0,0-.91.422.708.708,0,0,0,.422.91,2.612,2.612,0,0,1,1.486,1.885,4.7,4.7,0,0,1-.353,3.518.709.709,0,0,0,.548,1.162.828.828,0,0,0,.152-.015.715.715,0,0,0,.392-.239,5.953,5.953,0,0,0,.63-4.8A3.942,3.942,0,0,0,364.168,154.125Z" transform="translate(-350.605 -148.735)"/><rect class="a" width="8.949" height="1.493" transform="translate(6.245 27.681)"/></svg>