<svg xmlns="http://www.w3.org/2000/svg" width="30" height="30" viewBox="0 0 30 30"><defs><style>.a{fill:none;}.b{fill:#dcf2f5;}</style></defs><path class="a" d="M0,0H30V30H0Z"/><path class="b" d="M15,28A11.793,11.793,0,0,0,27,16.429,11.793,11.793,0,0,0,15,28ZM6.467,12.893A3.277,3.277,0,0,0,9.8,16.107a3.4,3.4,0,0,0,1.893-.566l-.027.244a3.336,3.336,0,0,0,6.667,0l-.027-.244a3.371,3.371,0,0,0,1.893.566,3.277,3.277,0,0,0,3.333-3.214A3.2,3.2,0,0,0,21.627,10a3.2,3.2,0,0,0,1.907-2.893A3.277,3.277,0,0,0,20.2,3.893a3.4,3.4,0,0,0-1.893.566l.027-.244a3.336,3.336,0,0,0-6.667,0l.027.244A3.371,3.371,0,0,0,9.8,3.893,3.277,3.277,0,0,0,6.467,7.107,3.2,3.2,0,0,0,8.373,10a3.2,3.2,0,0,0-1.907,2.893ZM15,6.786A3.277,3.277,0,0,1,18.333,10a3.336,3.336,0,0,1-6.667,0A3.277,3.277,0,0,1,15,6.786ZM3,16.429A11.793,11.793,0,0,0,15,28,11.793,11.793,0,0,0,3,16.429Z" transform="translate(0 0)"/></svg>