<svg xmlns="http://www.w3.org/2000/svg" width="77" height="77" viewBox="0 0 77 77"><defs><style>.a{fill:#f1f1f1;}.b{fill:#00c4d9;}.c{fill:#fff;}</style></defs><g transform="translate(-505 -325)"><g transform="translate(505 325)"><path class="a" d="M38.5,77A38.51,38.51,0,0,1,23.514,3.025,38.489,38.489,0,0,1,77,38.5a38.883,38.883,0,0,1-1.476,10.6,37.554,37.554,0,0,1-5.184,11.111A38.5,38.5,0,0,1,38.5,77Zm.338-64.815A26.654,26.654,0,1,0,65.492,38.839,26.684,26.684,0,0,0,38.839,12.185Z" transform="translate(0 0)"/></g><g transform="translate(505 336.685)"><path class="b" d="M38.5,39.244a38.259,38.259,0,0,1-14.986-3.025,38.371,38.371,0,0,1-12.238-8.251A38.371,38.371,0,0,1,3.025,15.73,38.259,38.259,0,0,1,0,.744c2.944.114,5.227.17,6.983.17C8.754.914,9.644.855,10.36.808c.518-.034.965-.064,1.6-.064A24.35,24.35,0,0,1,18.627,0C33.5,0,59.966,7.154,71.266,10.208c1.9.513,3.392.917,4.259,1.131A37.549,37.549,0,0,1,70.341,22.45a38.491,38.491,0,0,1-8.377,8.842,38.461,38.461,0,0,1-10.852,5.842A38.5,38.5,0,0,1,38.5,39.244Z" transform="translate(0 25.572)"/><circle class="c" cx="26.654" cy="26.654" r="26.654" transform="translate(12.185 0)"/></g></g></svg>