<svg xmlns="http://www.w3.org/2000/svg" width="20.259" height="19.45" viewBox="0 0 20.259 19.45"><defs><style>.a{fill:#e6e6e6;}.a,.b{stroke:#707070;}.b{fill:#fff;}.c{fill:#707070;}.d{stroke:none;}.e{fill:none;}</style></defs><path class="a" d="M10726.756,626.572a8.245,8.245,0,0,0,11.539,0c.29-3.574.726-8.067,1.088-12.56-3.156-3.14-10.56-3.14-13.717,0C10726.03,619.321,10726.1,620.955,10726.756,626.572Z" transform="translate(-10722.485 -609.977)"/><g class="b" transform="translate(0 0)"><ellipse class="d" cx="10.129" cy="4.304" rx="10.129" ry="4.304"/><ellipse class="e" cx="10.129" cy="4.304" rx="9.629" ry="3.804"/></g><path class="c" d="M3.608,1.383C3.881.642,2.886,0,1.991,0A2.222,2.222,0,0,0,0,1.4C.587,1.912,3.374,2.151,3.608,1.383Z" transform="translate(3.445 3.054) rotate(13)"/><path class="c" d="M2.975,1.062C3.212.586,2.268,0,1.493,0A1.582,1.582,0,0,0,0,1.437C-.121,2.02,2.792,1.252,2.975,1.062Z" transform="matrix(0.996, -0.087, 0.087, 0.996, 13.704, 4.104)"/><ellipse class="c" cx="2.206" cy="1.26" rx="2.206" ry="1.26" transform="translate(8.192 2.26)"/></svg>