<svg xmlns="http://www.w3.org/2000/svg" width="35.766" height="32.596" viewBox="0 0 35.766 32.596"><defs><style>.a,.b{fill:#e6e6e6;}.a{stroke:#707070;}.c{fill:#fff;}.d,.g{fill:#707070;}.e,.g{stroke:none;}.f{fill:none;}</style></defs><g transform="translate(-344.777 -528.72)"><g transform="translate(343.778 537.466) rotate(-34)"><g class="a" transform="translate(1.388 -0.27)"><rect class="e" width="7.993" height="29.975"/><rect class="f" x="0.5" y="0.5" width="6.993" height="28.975"/></g><g class="b" transform="translate(8.677 3.024)"><path class="e" d="M 0.499999076128006 23.95226860046387 L 0.499999076128006 0.7070935368537903 C 2.332156896591187 1.355008840560913 7.418960094451904 3.155245542526245 9.12416934967041 3.772922039031982 C 9.530172348022461 4.137144565582275 10.10305881500244 5.603555202484131 10.51056861877441 8.153562545776367 C 10.90830898284912 10.64243221282959 11.04366874694824 13.50067234039307 10.87265872955322 15.79937171936035 C 10.66824436187744 18.54707908630371 10.04412460327148 20.38987731933594 9.159117698669434 20.86236572265625 C 6.992448329925537 21.75893974304199 2.242564916610718 23.36797142028809 0.499999076128006 23.95226860046387 Z"/><path class="g" d="M 0.9999990463256836 1.414308547973633 L 0.9999990463256836 23.25654220581055 C 3.059978485107422 22.56132316589355 7.011542320251465 21.20742797851563 8.942165374755859 20.4110050201416 C 9.422565460205078 20.1339168548584 10.02232265472412 18.99258232116699 10.29665946960449 16.58917236328125 C 10.55137920379639 14.35768222808838 10.47603893280029 11.42756175994873 10.09511947631836 8.751102447509766 C 9.671060562133789 5.771570205688477 9.084146499633789 4.51643180847168 8.840161323547363 4.201898574829102 C 7.225975036621094 3.618740081787109 3.130523681640625 2.168096542358398 0.9999990463256836 1.414308547973633 M -9.5367431640625e-07 1.9073486328125e-06 C -9.5367431640625e-07 1.9073486328125e-06 7.366888999938965 2.602962493896484 9.371048927307129 3.330591201782227 C 11.39707946777344 4.784671783447266 12.79215908050537 19.56075286865234 9.371048927307129 21.31577301025391 C 6.669349193572998 22.43659210205078 -9.5367431640625e-07 24.6463623046875 -9.5367431640625e-07 24.6463623046875 L -9.5367431640625e-07 1.9073486328125e-06 Z"/></g></g><g class="c" transform="translate(362.543 536.922)"><path class="e" d="M 14.99752998352051 6.5 L 3.002470016479492 6.5 C 1.622599959373474 6.5 0.5 5.438620090484619 0.5 4.133999824523926 L 0.5 2.865999937057495 C 0.5 1.56138002872467 1.622599959373474 0.5 3.002470016479492 0.5 L 14.99752998352051 0.5 C 16.37739944458008 0.5 17.5 1.56138002872467 17.5 2.865999937057495 L 17.5 4.133999824523926 C 17.5 5.438620090484619 16.37739944458008 6.5 14.99752998352051 6.5 Z"/><path class="g" d="M 3.002470016479492 1 C 1.898300170898438 1 1 1.837080001831055 1 2.866000175476074 L 1 4.133999824523926 C 1 5.162919998168945 1.898300170898438 6 3.002470016479492 6 L 14.99752998352051 6 C 16.10169982910156 6 17 5.162919998168945 17 4.133999824523926 L 17 2.866000175476074 C 17 1.837080001831055 16.10169982910156 1 14.99752998352051 1 L 3.002470016479492 1 M 3.002470016479492 0 L 14.99752998352051 0 C 16.6557502746582 0 18 1.283150196075439 18 2.866000175476074 L 18 4.133999824523926 C 18 5.716850280761719 16.6557502746582 7 14.99752998352051 7 L 3.002470016479492 7 C 1.344249725341797 7 0 5.716850280761719 0 4.133999824523926 L 0 2.866000175476074 C 0 1.283150196075439 1.344249725341797 0 3.002470016479492 0 Z"/></g><circle class="d" cx="0.999" cy="0.999" r="0.999" transform="translate(365.207 539.587)"/></g></svg>