<svg xmlns="http://www.w3.org/2000/svg" width="47.961" height="42" viewBox="0 0 47.961 42"><defs><style>.a,.c,.d,.e,.g{fill:none;}.a,.b,.d,.e{stroke:#fff;}.a{stroke-width:2px;}.b{fill:#ff5a77;}.d{stroke-linecap:round;}.f,.h{stroke:none;}.h{fill:#fff;}</style></defs><g transform="translate(-944 -242.5)"><g transform="translate(640 -5)"><line class="a" y2="40" transform="translate(308 248)"/><line class="a" y2="40" transform="translate(348 248)"/><line class="a" x2="47.961" transform="translate(304 248.5)"/><line class="a" x2="47.961" transform="translate(304 288.5)"/><line class="a" x2="47.961" transform="translate(304 261.5)"/><line class="a" x2="47.961" transform="translate(304 275.5)"/></g><g class="b" transform="translate(955 251)"><circle class="f" cx="14" cy="14" r="14"/><circle class="g" cx="14" cy="14" r="13.5"/></g><g transform="translate(-165.001 75.359)"><g class="c" transform="translate(1127.001 179.641)"><path class="f" d="M3.144,15.257V10.9A5.776,5.776,0,0,1,0,5.895C0,2.639,2.99,0,6.68,0s6.678,2.639,6.678,5.895A5.627,5.627,0,0,1,11,10.389v4.868Z"/><path class="h" d="M 10.00039100646973 14.25689888000488 L 10.00039100646973 10.38883876800537 L 10.00039100646973 9.888548851013184 L 10.40076065063477 9.588559150695801 C 11.64424133300781 8.656839370727539 12.35742092132568 7.31049919128418 12.35742092132568 5.894749164581299 C 12.35742092132568 3.195778846740723 9.810501098632813 0.9999989867210388 6.679911136627197 0.9999989867210388 C 3.548001050949097 0.9999989867210388 1.000000953674316 3.195778846740723 1.000000953674316 5.894749164581299 C 1.000000953674316 7.570858955383301 1.982040882110596 9.113489151000977 3.626950979232788 10.02128887176514 L 4.143771171569824 10.30650901794434 L 4.143771171569824 10.89680862426758 L 4.143771171569824 14.25689888000488 L 10.00039100646973 14.25689888000488 M 11.00039100646973 15.25689888000488 L 3.143770933151245 15.25689888000488 L 3.143770933151245 10.89680862426758 C 1.256470918655396 9.855238914489746 9.37499976316758e-07 8.004328727722168 9.37499976316758e-07 5.894749164581299 C 9.37499976316758e-07 2.639258861541748 2.990250825881958 -1.036834760270722e-06 6.679911136627197 -1.036834760270722e-06 C 10.3675708770752 -1.036834760270722e-06 13.35742092132568 2.639258861541748 13.35742092132568 5.894749164581299 C 13.35742092132568 7.695559024810791 12.44348049163818 9.307559013366699 11.00039100646973 10.38883876800537 L 11.00039100646973 15.25689888000488 Z"/></g><g transform="translate(1130.572 195.969)"><line class="d" x2="7.025" y2="4.286"/><line class="d" x1="7.025" y2="4.286"/></g><line class="e" x1="5" transform="translate(1127.357 185.969)"/><line class="e" x2="5" transform="translate(1135.215 185.969)"/></g></g></svg>