<svg xmlns="http://www.w3.org/2000/svg" width="26.874" height="42.916" viewBox="0 0 26.874 42.916"><defs><style>.a{fill:none;stroke:#707070;stroke-linecap:round;}.b{fill:#fff;}.c{fill:#e6e6e6;}.d,.e{stroke:none;}.e{fill:#707070;}</style></defs><g transform="translate(-1000.126 -341.084)"><path class="a" d="M10639.342,597c5.955,1.733,4.973,2.143,10.3,4.984,6.625,2.907,5.211,10.7,5.211,10.7v10.274" transform="translate(-9631.819 -252.958)"/><g class="b" transform="translate(1000.126 346.647) rotate(-68)"><path class="d" d="M 2.999976873397827 11.50011730194092 C 1.621486902236938 11.50011730194092 0.4999968707561493 10.37862682342529 0.4999968707561493 9.000137329101563 L 0.4999968707561493 2.999977111816406 C 0.4999968707561493 1.621487259864807 1.621486902236938 0.4999972283840179 2.999976873397827 0.4999972283840179 C 4.378467082977295 0.4999972283840179 5.499957084655762 1.621487259864807 5.499957084655762 2.999977111816406 L 5.499957084655762 9.000137329101563 C 5.499957084655762 10.37862682342529 4.378467082977295 11.50011730194092 2.999976873397827 11.50011730194092 Z"/><path class="e" d="M 2.999976873397827 0.9999971389770508 C 1.897186756134033 0.9999971389770508 0.9999966621398926 1.897187232971191 0.9999966621398926 2.999977111816406 L 0.9999966621398926 9.000137329101563 C 0.9999966621398926 10.10292720794678 1.897186756134033 11.00011730194092 2.999976873397827 11.00011730194092 C 4.102766990661621 11.00011730194092 4.999957084655762 10.10292720794678 4.999957084655762 9.000137329101563 L 4.999957084655762 2.999977111816406 C 4.999957084655762 1.897187232971191 4.102766990661621 0.9999971389770508 2.999976873397827 0.9999971389770508 M 2.999976873397827 -2.86102294921875e-06 C 4.656816959381104 -2.86102294921875e-06 5.999957084655762 1.343136787414551 5.999957084655762 2.999977111816406 L 5.999957084655762 9.000137329101563 C 5.999957084655762 10.6569766998291 4.656816959381104 12.00011730194092 2.999976873397827 12.00011730194092 C 1.343136787414551 12.00011730194092 -3.337860107421875e-06 10.6569766998291 -3.337860107421875e-06 9.000137329101563 L -3.337860107421875e-06 2.999977111816406 C -3.337860107421875e-06 1.343136787414551 1.343136787414551 -2.86102294921875e-06 2.999976873397827 -2.86102294921875e-06 Z"/></g><g class="c" transform="translate(1020 370)"><path class="d" d="M 6.423500061035156 13.5 L 0.5369885563850403 13.5 L 1.465559959411621 0.5 L 4.566357135772705 0.5 L 6.423500061035156 13.5 Z"/><path class="e" d="M 1.931120872497559 1 L 1.073977947235107 13 L 5.84699010848999 13 L 4.132704257965088 1 L 1.931120872497559 1 M 1 0 L 5 0 L 7 14 L 0 14 L 1 0 Z"/></g></g></svg>