<svg xmlns="http://www.w3.org/2000/svg" width="17" height="18.815" viewBox="0 0 17 18.815"><defs><style>.a,.b{fill:#9ce4ff;}.a{stroke:#598da1;}.c,.d{stroke:none;}.d{fill:#598da1;}</style></defs><g transform="translate(-415 -476)"><path class="a" d="M6127.058,481.5s-.911,5.362,6.05,7.849c7.749,3.439,3.154,8.043,3.154,8.043h6.08s.1-8.042,0-15.892Z" transform="translate(-5711.1 -3.077)"/><g class="b" transform="translate(415 476)"><path class="c" d="M 14.875 3.5 L 2.125 3.5 C 1.228970050811768 3.5 0.5 2.827100038528442 0.5 2 C 0.5 1.172899961471558 1.228970050811768 0.5 2.125 0.5 L 14.875 0.5 C 15.77103042602539 0.5 16.5 1.172899961471558 16.5 2 C 16.5 2.827100038528442 15.77103042602539 3.5 14.875 3.5 Z"/><path class="d" d="M 2.125 1 C 1.504670143127441 1 1 1.448600053787231 1 2 C 1 2.551399946212769 1.504670143127441 3 2.125 3 L 14.875 3 C 15.49532985687256 3 16 2.551399946212769 16 2 C 16 1.448600053787231 15.49532985687256 1 14.875 1 L 2.125 1 M 2.125 0 L 14.875 0 C 16.04859924316406 0 17 0.8954300880432129 17 2 C 17 3.104569911956787 16.04859924316406 4 14.875 4 L 2.125 4 C 0.9513893127441406 4 0 3.104569911956787 0 2 C 0 0.8954300880432129 0.9513893127441406 0 2.125 0 Z"/></g></g></svg>