<svg xmlns="http://www.w3.org/2000/svg" width="43.777" height="37.821" viewBox="0 0 43.777 37.821"><defs><style>.a,.b,.c,.f{fill:none;}.b,.c{stroke:#fff;}.c{stroke-linecap:round;}.d,.e{stroke:none;}.e{fill:#fff;}</style></defs><g transform="translate(-649.362 -1123)"><g transform="translate(288 4.645)"><g class="a" transform="translate(372.333 1134.9)"><path class="d" d="M6.822,0H21.836l5.23,8.276H0Z"/><path class="e" d="M 7.293754577636719 1.000000476837158 L 2.120218276977539 7.276420593261719 L 13.72384262084961 7.276420593261719 L 25.25087928771973 7.276420593261719 L 21.28471755981445 1.000000476837158 L 7.293754577636719 1.000000476837158 M 6.822103500366211 0 L 21.83573150634766 0 L 27.06572341918945 8.276420593261719 L 13.72384262084961 8.276420593261719 L 1.9073486328125e-06 8.276420593261719 L 6.822103500366211 0 Z"/></g><path class="b" d="M25.808,9.835H13.323a4.778,4.778,0,0,1-9.008,0H.062S-.677,1.3,2.959.282c7.428,0,29.352-.635,38.5,0,2.542,1.85,0,9.552,0,9.552H34.815a4.777,4.777,0,0,1-9.007,0Z" transform="translate(361.924 1142.658)"/><g class="b" transform="translate(365.965 1146.124)"><circle class="d" cx="4.776" cy="4.776" r="4.776"/><circle class="f" cx="4.776" cy="4.776" r="4.276"/></g><g class="b" transform="translate(387.458 1146.124)"><circle class="d" cx="4.776" cy="4.776" r="4.776"/><circle class="f" cx="4.776" cy="4.776" r="4.276"/></g></g><path class="c" d="M9312.771,1117.194s2.611.679,2.818,4.444c-.155,4.745-5.084,4.9-5.084,4.9" transform="translate(-8636.001 7)"/><path class="c" d="M9313.229,1117.228s-2.517.645-2.724,4.41c.155,4.745,5.084,4.9,5.084,4.9" transform="translate(-8641.001 7)"/><line class="c" y1="5" transform="translate(674.5 1123.5)"/></g></svg>