<svg xmlns="http://www.w3.org/2000/svg" width="51.294" height="47.499" viewBox="0 0 51.294 47.499"><defs><style>.a,.b,.e{fill:none;}.b{stroke:#fff;}.c,.d{stroke:none;}.d{fill:#fff;}</style></defs><g transform="translate(-376.408 -1114)"><g transform="translate(15 1.645)"><g class="a" transform="translate(374.176 1134.9)"><path class="c" d="M8.03,0H25.7l6.156,9.741H0Z"/><path class="d" d="M 8.501363754272461 1.000001907348633 L 2.120218276977539 8.741462707519531 L 16.15316009521484 8.741462707519531 L 30.04189682006836 8.741462707519531 L 25.14994812011719 1.000001907348633 L 8.501363754272461 1.000001907348633 M 8.02971076965332 1.9073486328125e-06 L 25.70096206665039 1.9073486328125e-06 L 31.85674095153809 9.741462707519531 L 16.15316009521484 9.741462707519531 L 1.9073486328125e-06 9.741462707519531 L 8.02971076965332 1.9073486328125e-06 Z"/></g><path class="b" d="M30.376,11.575h-14.7a5.624,5.624,0,0,1-10.6,0H.072S-.8,1.534,3.482.332c8.743,0,34.548-.747,45.312,0,2.992,2.177,0,11.243,0,11.243H40.978a5.623,5.623,0,0,1-10.6,0Z" transform="translate(361.924 1144.031)"/><g class="b" transform="translate(366.68 1148.111)"><circle class="c" cx="5.622" cy="5.622" r="5.622"/><circle class="e" cx="5.622" cy="5.622" r="5.122"/></g><g class="b" transform="translate(391.978 1148.111)"><circle class="c" cx="5.622" cy="5.622" r="5.622"/><circle class="e" cx="5.622" cy="5.622" r="5.122"/></g></g><g class="a" transform="translate(400 1114)"><path class="c" d="M4,0H9l6,15.5H-3Z"/><path class="d" d="M 4.645636558532715 1 L -1.451137542724609 14.5 L 13.54059505462646 14.5 L 8.314788818359375 1 L 4.645636558532715 1 M 4 0 L 9 0 L 15 15.5 L -3 15.5 L 4 0 Z"/></g><path class="b" d="M0,3V0" transform="translate(406.5 1114.5)"/><path class="b" d="M0,4V2" transform="translate(406.5 1124.5)"/><path class="b" d="M0,6V2" transform="translate(406.5 1117.5)"/></g></svg>