<svg xmlns="http://www.w3.org/2000/svg" width="52.822" height="32.53" viewBox="0 0 52.822 32.53"><defs><style>.a{fill:#ddeaef;}.a,.b,.c,.d,.g{stroke:#4aa9cc;}.b{fill:#cbf1ff;}.c,.e{fill:#4aa9cc;}.d{fill:#fff;}.f{fill:rgba(0,0,0,0);}.g{fill:none;}</style></defs><g transform="translate(-1281.77 -47.146)"><g transform="translate(1282.27 55.482)"><path class="a" d="M4,11V24.635H20.1V11Z" transform="translate(-4 -11)"/><path class="b" d="M29.994,17.014h5.158l3.518,3.717v6.194H29.994Z" transform="translate(-13.892 -13.289)"/><ellipse class="c" cx="3.097" cy="3.097" rx="3.097" ry="3.097" transform="translate(1.858 10.531)"/><path class="c" d="M3.1,0A3.1,3.1,0,1,1,0,3.1,3.1,3.1,0,0,1,3.1,0Z" transform="translate(17.345 10.531)"/><path class="d" d="M11.239,26.814A1.239,1.239,0,1,1,10,28.053,1.239,1.239,0,0,1,11.239,26.814Zm15.486,0a1.239,1.239,0,1,1-1.239,1.239A1.239,1.239,0,0,1,26.725,26.814ZM26.106,19l2.478,3.478H24.247V19Z" transform="translate(-6.283 -14.425)"/></g><g transform="matrix(0.921, 0.391, -0.391, 0.921, 1312.898, 48.774)"><path class="e" d="M15.633.992A1.467,1.467,0,0,0,14.238,0H3.437A1.477,1.477,0,0,0,2.042.992L0,6.874v7.856a.985.985,0,0,0,.982.982h.982a.985.985,0,0,0,.982-.982v-.982H14.729v.982a.985.985,0,0,0,.982.982h.982a.985.985,0,0,0,.982-.982V6.874ZM3.437,10.8A1.473,1.473,0,1,1,4.91,9.329,1.471,1.471,0,0,1,3.437,10.8Zm10.8,0a1.473,1.473,0,1,1,1.473-1.473A1.471,1.471,0,0,1,14.238,10.8ZM1.964,5.892,3.437,1.473h10.8l1.473,4.419Z" transform="translate(2.946 4.91)"/><path class="f" d="M0,0H23.567V23.567H0Z"/></g><line class="g" x1="5" y1="6" transform="translate(1299.5 47.5)"/><line class="g" y1="5.322" transform="translate(1307.737 47.5)"/><line class="g" y1="6" x2="6" transform="translate(1311.5 47.5)"/></g></svg>