<svg xmlns="http://www.w3.org/2000/svg" width="29.944" height="27.63" viewBox="0 0 29.944 27.63"><defs><style>.a,.c{fill:#e6e6e6;}.a,.d{stroke-linecap:round;}.b{fill:#fff;}.b,.d{stroke:#707070;}.d,.g{fill:none;}.e,.f{stroke:none;}.f{fill:#707070;}</style></defs><g transform="translate(-685.101 -561.37)"><g transform="translate(55.114 -75)"><g class="a" transform="translate(630.268 642.389)"><path class="e" d="M 28.82823181152344 9.13292407989502 C 28.48752212524414 9.132944107055664 27.76054191589355 8.665924072265625 26.99088096618652 8.171483993530273 C 25.24944114685059 7.052744388580322 22.61774253845215 5.362104415893555 19.16926193237305 5.362104415893555 C 19.09792327880859 5.362104415893555 19.02682304382324 5.36281156539917 18.95487022399902 5.364264488220215 C 18.85209655761719 5.358675956726074 18.24668884277344 5.319000244140625 17.55037117004395 5.273374557495117 C 15.34275150299072 5.12870454788208 13.49937152862549 5.008964538574219 13.30292129516602 5.008964538574219 L 13.28777122497559 5.009104251861572 C 9.931421279907227 5.063714504241943 6.906961441040039 6.234114646911621 4.476761817932129 7.174554347991943 C 3.030321598052979 7.734294414520264 1.781131625175476 8.217704772949219 1.014261603355408 8.217704772949219 C 0.6532316207885742 8.217704772949219 0.5184216499328613 8.109564781188965 0.4484316110610962 8.028223991394043 C 0.2734816372394562 7.824884414672852 0.1079416275024414 7.297384262084961 0.3128816187381744 5.939094543457031 L 0.3184816241264343 5.902004241943359 L 0.3184816241264343 5.864494323730469 C 0.3184816241264343 5.117824554443359 1.69918167591095 3.893434524536133 5.574281692504883 2.696274518966675 C 8.568161964416504 1.771364450454712 11.93605136871338 1.218664407730103 13.46244144439697 1.218664407730103 C 13.76848125457764 1.218664407730103 13.934401512146 1.240474462509155 14.01970195770264 1.258774399757385 L 14.09125137329102 1.274124503135681 L 14.1642017364502 1.268324494361877 C 14.40910148620605 1.248844504356384 14.6871919631958 1.238974452018738 14.99074172973633 1.238974452018738 C 17.37557220458984 1.238974452018738 21.03865242004395 1.835554480552673 23.898681640625 2.689744472503662 C 27.11058235168457 3.649024486541748 29.10586166381836 4.865524291992188 29.10586166381836 5.864494323730469 L 29.10586166381836 5.880764484405518 L 29.1069221496582 5.8970046043396 C 29.26542091369629 8.329854011535645 29.0458812713623 8.952694892883301 28.90091133117676 9.107424736022949 C 28.88602256774902 9.123324394226074 28.87703132629395 9.132914543151855 28.82823181152344 9.13292407989502 Z"/><path class="f" d="M 13.46244144439697 1.718664169311523 C 11.97315216064453 1.718664169311523 8.670612335205078 2.263034820556641 5.721860885620117 3.174004554748535 C 1.699380874633789 4.416694641113281 0.8184814453125 5.537494659423828 0.8184814453125 5.864494323730469 L 0.8184814453125 5.93951416015625 L 0.8072910308837891 6.013684272766113 C 0.6136875152587891 7.296798706054688 0.7909698486328125 7.645176887512207 0.8227901458740234 7.695364475250244 C 0.8416290283203125 7.702170848846436 0.8974227905273438 7.717704296112061 1.014261245727539 7.717704296112061 C 1.687761306762695 7.717704296112061 2.954832077026367 7.22737455368042 4.29631233215332 6.708244323730469 C 6.633392333984375 5.803844451904297 9.834131240844727 4.565224647521973 13.27773189544678 4.509204864501953 C 13.28515148162842 4.509054183959961 13.29336166381836 4.508964538574219 13.30292129516602 4.508964538574219 C 13.49749183654785 4.508964538574219 14.83811187744141 4.594573974609375 17.58308029174805 4.774444580078125 C 18.21931266784668 4.816142082214355 18.82281875610352 4.855688095092773 18.96434783935547 4.863988876342773 C 19.03301620483398 4.862722396850586 19.10103988647461 4.862104415893555 19.16925048828125 4.862104415893555 C 22.76457214355469 4.862104415893555 25.4705924987793 6.600494384765625 27.26123237609863 7.750834465026855 C 27.69058990478516 8.026657104492188 28.24129295349121 8.380437850952148 28.58819007873535 8.544124603271484 C 28.65278244018555 8.209114074707031 28.70919799804688 7.483119964599609 28.60798072814941 5.92950439453125 L 28.60586166381836 5.897034645080566 L 28.60586166381836 5.864494323730469 C 28.60586166381836 5.647804260253906 28.30410194396973 5.209884643554688 27.45364189147949 4.688834190368652 C 26.58779144287109 4.158364295959473 25.30903244018555 3.632734298706055 23.75559234619141 3.168764114379883 C 20.93671035766602 2.326844215393066 17.33249282836914 1.738894462585449 14.99079132080078 1.738974571228027 C 14.70027160644531 1.738984107971191 14.43549156188965 1.748324394226074 14.20383167266846 1.766744613647461 L 14.05793190002441 1.77834415435791 L 13.91483116149902 1.747654914855957 C 13.883131980896 1.740854263305664 13.75682163238525 1.718664169311523 13.46244144439697 1.718664169311523 M 13.46244049072266 0.718663215637207 C 13.73952960968018 0.718663215637207 13.9636058807373 0.7353639602661133 14.12457180023193 0.7698945999145508 C 14.38566112518311 0.7491331100463867 14.67629146575928 0.738983154296875 14.99076366424561 0.7389726638793945 C 19.63998794555664 0.7388181686401367 29.60586166381836 2.95494556427002 29.60586166381836 5.864494323730469 C 29.78998947143555 8.690675735473633 29.53296661376953 9.632920265197754 28.82826042175293 9.632920265197754 C 27.41845703125 9.632920265197754 24.21612167358398 5.862103462219238 19.16924858093262 5.862103462219238 C 19.09601020812988 5.862103462219238 19.02302551269531 5.862888336181641 18.94901275634766 5.864494323730469 C 18.87546157836914 5.864494323730469 13.59704685211182 5.508959770202637 13.30292129516602 5.508959770202637 C 13.30100631713867 5.508959770202637 13.29935169219971 5.508974075317383 13.29786205291748 5.509004592895508 C 7.903598785400391 5.596768379211426 3.197854995727539 8.717705726623535 1.014261245727539 8.717705726623535 C -0.03657150268554688 8.717705726623535 -0.5030326843261719 7.995383739471436 -0.1815185546875 5.864494323730469 C -0.1815185546875 3.003103256225586 10.22573280334473 0.718663215637207 13.46244049072266 0.718663215637207 Z"/></g><g class="b" transform="translate(630 646.957)"><ellipse class="e" cx="14.949" cy="4.559" rx="14.949" ry="4.559"/><ellipse class="g" cx="14.949" cy="4.559" rx="14.449" ry="4.059"/></g><g class="c" transform="translate(638.8 646)"><path class="e" d="M 6.5 4.499998569488525 C 2.782599925994873 4.499998569488525 0.5 3.335128545761108 0.5 2.499998569488525 C 0.5 2.370548486709595 0.5 1.976608514785767 1.7987300157547 1.746278524398804 C 2.854919910430908 1.558968544006348 4.443210124969482 1.543458461761475 6.115230083465576 1.543458461761475 C 7.811699867248535 1.543458461761475 9.57310962677002 1.55927848815918 10.82938003540039 1.748388528823853 C 11.89107990264893 1.90820848941803 12.5 2.182158470153809 12.5 2.499998569488525 C 12.5 3.335128545761108 10.21739959716797 4.499998569488525 6.5 4.499998569488525 Z"/><path class="f" d="M 6.115230083465576 2.043458461761475 C 4.737770080566406 2.043458461761475 3.418829917907715 2.052608489990234 2.422410011291504 2.163058519363403 C 1.422389984130859 2.273915767669678 1.096587181091309 2.45384407043457 1.007059097290039 2.520419359207153 C 1.057473182678223 2.636513233184814 1.373390197753906 3.011779069900513 2.374699592590332 3.376298427581787 C 3.479530334472656 3.778498411178589 4.944589614868164 3.999998569488525 6.5 3.999998569488525 C 8.055410385131836 3.999998569488525 9.520469665527344 3.778498411178589 10.62529945373535 3.376298427581787 C 11.50667953491211 3.055438756942749 11.85701942443848 2.726248741149902 11.96261501312256 2.573944330215454 C 11.79729270935059 2.478025197982788 11.34064292907715 2.289770603179932 10.19143009185791 2.172788619995117 C 9.019000053405762 2.053448438644409 7.534870147705078 2.043458461761475 6.115230083465576 2.043458461761475 M 6.115230083465576 1.043458461761475 C 9.705080032348633 1.043458461761475 13 1.119288444519043 13 2.499998569488525 C 13 3.880708456039429 10.0898494720459 4.999998569488525 6.5 4.999998569488525 C 2.910149574279785 4.999998569488525 0 3.880708456039429 0 2.499998569488525 C 0 1.119288444519043 2.52538013458252 1.043458461761475 6.115230083465576 1.043458461761475 Z"/></g></g><g transform="translate(-1.5 230)"><line class="d" x2="3" y2="2" transform="translate(709.5 354.5)"/><line class="d" y2="3" transform="translate(701.5 355.5)"/><line class="d" x1="3" y2="2" transform="translate(690.5 354.5)"/></g><g class="c" transform="translate(697 561.37)"><path class="e" d="M 8.299823760986328 7.558534622192383 C 6.412870407104492 7.350115299224854 4.862071514129639 7.255964279174805 3.354981660842896 7.255964279174805 C 1.879701137542725 7.255964279174805 0.4430020451545715 7.346141815185547 -1.21168839931488 7.545297622680664 C -0.5098097324371338 5.631660461425781 0.4624041020870209 2.761492490768433 0.4736017286777496 2.72840428352356 L 0.5000017285346985 2.650424242019653 L 0.5000017285346985 2.568094253540039 C 0.5000017285346985 1.427744269371033 1.621501684188843 0.5000042319297791 3.000001668930054 0.5000042319297791 L 4.000001907348633 0.5000042319297791 C 5.378501892089844 0.5000042319297791 6.500001907348633 1.427744269371033 6.500001907348633 2.568094253540039 L 6.500001907348633 2.662504196166992 L 6.534431934356689 2.750424146652222 C 6.543243885040283 2.772936344146729 7.354586124420166 4.848481178283691 8.299823760986328 7.558534622192383 Z"/><path class="f" d="M 3.000001907348633 1.000004291534424 C 1.897201538085938 1.000004291534424 1.000001907348633 1.703444480895996 1.000001907348633 2.568094253540039 L 1.000001907348633 2.732744216918945 L 0.947211742401123 2.888704299926758 C 0.9072365760803223 3.00681734085083 0.1807069778442383 5.151625633239746 -0.4672155380249023 6.958832263946533 C 0.8799386024475098 6.819882392883301 2.103344917297363 6.755964279174805 3.354981660842896 6.755964279174805 C 4.66530179977417 6.755964279174805 6.006583213806152 6.82607889175415 7.566036224365234 6.979160308837891 C 6.740943431854248 4.652097225189209 6.076810359954834 2.953064441680908 6.068851470947266 2.932744026184082 L 6.000001907348633 2.756904125213623 L 6.000001907348633 2.568094253540039 C 6.000001907348633 1.703444480895996 5.10280179977417 1.000004291534424 4.000001907348633 1.000004291534424 L 3.000001907348633 1.000004291534424 M 3.000001907348633 3.814697265625e-06 L 4.000001907348633 3.814697265625e-06 C 5.656851768493652 3.814697265625e-06 7.000001907348633 1.149774074554443 7.000001907348633 2.568094253540039 C 7.000001907348633 2.568094253540039 7.964841842651367 5.031694412231445 9.032221794128418 8.146724700927734 C 6.878416538238525 7.886219024658203 5.087401866912842 7.755966663360596 3.354979276657104 7.755966663360596 C 1.622556686401367 7.755966663360596 -0.05127334594726563 7.886219024658203 -1.970707893371582 8.146724700927734 C -1.284178733825684 6.362014293670654 1.9073486328125e-06 2.568094253540039 1.9073486328125e-06 2.568094253540039 C 1.9073486328125e-06 1.149774074554443 1.343141555786133 3.814697265625e-06 3.000001907348633 3.814697265625e-06 Z"/></g></g></svg>