<svg xmlns="http://www.w3.org/2000/svg" width="33.5" height="33.5" viewBox="0 0 33.5 33.5"><defs><style>.a{fill:#dcf2f5;}.b{fill:none;}</style></defs><path class="a" d="M25.222,6.41A2.086,2.086,0,0,0,23.24,5H7.885A2.1,2.1,0,0,0,5.9,6.41L3,14.771V25.938a1.4,1.4,0,0,0,1.4,1.4h1.4a1.4,1.4,0,0,0,1.4-1.4v-1.4h16.75v1.4a1.4,1.4,0,0,0,1.4,1.4h1.4a1.4,1.4,0,0,0,1.4-1.4V14.771ZM7.885,20.354A2.094,2.094,0,1,1,9.979,18.26,2.091,2.091,0,0,1,7.885,20.354Zm15.354,0a2.094,2.094,0,1,1,2.094-2.094A2.091,2.091,0,0,1,23.24,20.354ZM5.792,13.375,7.885,7.094H23.24l2.094,6.281Z" transform="translate(1.188 1.979)"/><path class="b" d="M0,0H33.5V33.5H0Z"/></svg>