<svg xmlns="http://www.w3.org/2000/svg" width="47.961" height="42" viewBox="0 0 47.961 42"><defs><style>.a,.c,.e{fill:none;}.a,.b,.c{stroke:#fff;}.a{stroke-width:2px;}.b{fill:#00ce88;}.d{stroke:none;}</style></defs><g transform="translate(-363 -240.5)"><g transform="translate(59 -7)"><line class="a" y2="40" transform="translate(308 248)"/><line class="a" y2="40" transform="translate(348 248)"/><line class="a" x2="47.961" transform="translate(304 248.5)"/><line class="a" x2="47.961" transform="translate(304 288.5)"/><line class="a" x2="47.961" transform="translate(304 261.5)"/><line class="a" x2="47.961" transform="translate(304 275.5)"/></g><g class="b" transform="translate(373 247)"><circle class="d" cx="14" cy="14" r="14"/><circle class="e" cx="14" cy="14" r="13.5"/></g><g transform="translate(-261 70.89)"><path class="c" d="M16.267-2.414C14.292,2.279,7.221.19,3.579,9.294" transform="translate(635.5 189.112)"/><path class="c" d="M9293.037,189.523c1.018,10.008-6.817,14.021-8.729,14.168-2.547.441-8.229-2.449-4.457-8.034C9283.231,191.3,9285.682,194.384,9293.037,189.523Z" transform="translate(-8638.127 -7)"/></g></g></svg>